<svg width="36" height="48" viewBox="0 0 36 48" fill="none" xmlns="http://www.w3.org/2000/svg">
<path opacity="0.7" d="M17.8521 47.0156C12.9432 47.0156 8.8807 45.7038 5.66455 43.0801C2.46956 40.4352 0.798014 37.0392 0.649902 32.8921H9.50488C9.77995 34.8387 10.6898 36.415 12.2344 37.6211C13.8001 38.8271 15.6938 39.4302 17.9155 39.4302C20.4123 39.4302 22.4435 38.6473 24.0093 37.0815C25.5962 35.4946 26.3896 33.4528 26.3896 30.9561C26.3896 28.417 25.6068 26.3434 24.041 24.7354C22.4753 23.1273 20.4546 22.3232 17.979 22.3232C16.244 22.3232 14.6676 22.7041 13.25 23.4658C11.8535 24.2064 10.7533 25.2326 9.94922 26.5444H1.37988L3.6333 0.20166H32.769V7.81885H11.1553L10.1079 20.3555H10.2983C11.2505 18.7897 12.6047 17.5625 14.3608 16.6738C16.1382 15.7852 18.18 15.3408 20.4863 15.3408C24.8662 15.3408 28.4632 16.7902 31.2773 19.689C34.1126 22.5666 35.5303 26.2376 35.5303 30.7021C35.5303 35.5475 33.8905 39.4831 30.6108 42.5088C27.3524 45.5133 23.0994 47.0156 17.8521 47.0156Z" fill="white"/>
</svg>
