<svg width="30" height="23" viewBox="0 0 30 23" fill="none" xmlns="http://www.w3.org/2000/svg">
<path fill-rule="evenodd" clip-rule="evenodd" d="M19.5 0.513672C21.459 0.513672 23.127 1.65726 23.745 3.25281H10.5C8.51088 3.25281 6.60322 3.97427 5.1967 5.25849C3.79018 6.54271 3 8.28449 3 10.1006V16.7157C2.12239 16.4321 1.36263 15.9072 0.82536 15.213C0.288089 14.5189 -0.000268392 13.6898 1.87448e-07 12.8398V4.62238C1.87448e-07 3.53268 0.474106 2.48761 1.31802 1.71708C2.16193 0.946552 3.30653 0.513672 4.5 0.513672H19.5ZM25.5 5.99194H10.5C9.30653 5.99194 8.16193 6.42482 7.31802 7.19535C6.47411 7.96589 6 9.01095 6 10.1006V18.3181C6 19.4078 6.47411 20.4528 7.31802 21.2233C8.16193 21.9939 9.30653 22.4268 10.5 22.4268H25.5C26.6935 22.4268 27.8381 21.9939 28.682 21.2233C29.5259 20.4528 30 19.4078 30 18.3181V10.1006C30 9.01095 29.5259 7.96589 28.682 7.19535C27.8381 6.42482 26.6935 5.99194 25.5 5.99194ZM21 14.2094C21 14.9358 20.6839 15.6325 20.1213 16.1462C19.5587 16.6599 18.7956 16.9485 18 16.9485C17.2044 16.9485 16.4413 16.6599 15.8787 16.1462C15.3161 15.6325 15 14.9358 15 14.2094C15 13.4829 15.3161 12.7862 15.8787 12.2725C16.4413 11.7588 17.2044 11.4702 18 11.4702C18.7956 11.4702 19.5587 11.7588 20.1213 12.2725C20.6839 12.7862 21 13.4829 21 14.2094Z" fill="white"/>
</svg>
