<svg width="36" height="49" viewBox="0 0 36 49" fill="none" xmlns="http://www.w3.org/2000/svg">
<path opacity="0.5" d="M12.0962 27.0049V20.0859H17.6504C19.8298 20.0859 21.5965 19.4935 22.9507 18.3086C24.3049 17.1237 24.9819 15.5897 24.9819 13.7065C24.9819 11.8234 24.3366 10.3317 23.0459 9.23145C21.7552 8.11003 19.9355 7.54932 17.5869 7.54932C15.3652 7.54932 13.5667 8.15234 12.1914 9.3584C10.8161 10.5645 10.0649 12.1725 9.93799 14.1826H1.11475C1.28402 9.92969 2.90267 6.53369 5.9707 3.99463C9.03874 1.45557 13.0483 0.186035 17.9995 0.186035C22.7814 0.186035 26.6429 1.30745 29.584 3.55029C32.5462 5.79313 34.0273 8.74479 34.0273 12.4053C34.0273 15.1771 33.1598 17.5257 31.4248 19.4512C29.6898 21.3766 27.4046 22.5933 24.5693 23.1011V23.2915C28.0182 23.5877 30.7477 24.7197 32.7578 26.6875C34.7891 28.6341 35.8047 31.1838 35.8047 34.3364C35.8047 38.4201 34.1226 41.7209 30.7583 44.2388C27.4152 46.7567 23.0882 48.0156 17.7773 48.0156C12.6357 48.0156 8.47803 46.7249 5.3042 44.1436C2.15153 41.5622 0.458822 38.145 0.226074 33.8921H9.39844C9.54655 35.8387 10.3717 37.3939 11.874 38.5576C13.3975 39.7214 15.4076 40.3032 17.9043 40.3032C20.2952 40.3032 22.2524 39.6896 23.7759 38.4624C25.2993 37.2352 26.061 35.6589 26.061 33.7334C26.061 31.6387 25.3205 29.9989 23.8394 28.814C22.3582 27.6079 20.327 27.0049 17.7456 27.0049H12.0962Z" fill="white"/>
</svg>
