<svg width="35" height="47" viewBox="0 0 35 47" fill="none" xmlns="http://www.w3.org/2000/svg">
<path opacity="0.5" d="M0.67041 14.9761C0.67041 10.6385 2.23617 7.0944 5.36768 4.34375C8.52035 1.57194 12.5934 0.186035 17.5869 0.186035C22.39 0.186035 26.3044 1.43441 29.3301 3.93115C32.3558 6.40674 33.8687 9.56999 33.8687 13.4209C33.8687 14.7962 33.6571 16.1292 33.2339 17.4199C32.8319 18.6895 32.1759 19.9696 31.2661 21.2603C30.3774 22.5298 29.4782 23.6829 28.5684 24.7197C27.6585 25.7354 26.4736 26.9731 25.0137 28.4331L13.8418 39.1924V39.3828H34.5034V47H1.20996V40.5571L18.4756 23.9263C20.8031 21.5988 22.39 19.7262 23.2363 18.3086C24.1038 16.891 24.5376 15.3887 24.5376 13.8018C24.5376 12.0667 23.8499 10.6068 22.4746 9.42188C21.0993 8.23698 19.3643 7.64453 17.2695 7.64453C15.0479 7.64453 13.207 8.34277 11.7471 9.73926C10.2871 11.1146 9.55713 12.8602 9.55713 14.9761V15.1348H0.67041V14.9761Z" fill="white"/>
</svg>
